<svg width="16" height="16" viewBox="0 0 16 16" fill="none" xmlns="http://www.w3.org/2000/svg">
<g clip-path="url(#clip0)">
<path d="M4.32568 8.70117H2.24072L1.77246 10H1.0957L2.99609 5.02344H3.57031L5.47412 10H4.80078L4.32568 8.70117ZM2.43896 8.16113H4.13086L3.2832 5.8335L2.43896 8.16113ZM7.76758 6.93066L8.96045 5.02344H9.73291L8.16064 7.49121L9.77051 10H8.99121L7.76758 8.05859L6.53711 10H5.76123L7.37451 7.49121L5.79883 5.02344H6.56787L7.76758 6.93066Z" fill="black"/>
<path d="M11.2368 10H10.5806V5.02344H11.2368V10ZM15.7759 5.56348H14.1763V10H13.5234V5.56348H11.9272V5.02344H15.7759V5.56348Z" fill="#EC7979"/>
</g>
<defs>
<clipPath id="clip0">
<rect width="16" height="16" fill="white"/>
</clipPath>
</defs>
</svg>
